<svg width="39" height="38" viewBox="0 0 39 38" fill="none" xmlns="http://www.w3.org/2000/svg">
<path d="M19.7105 28.7598C25.1972 28.7598 29.6632 24.3788 29.6632 19.0047C29.6632 13.6227 25.197 9.24951 19.7105 9.24951C14.2315 9.24951 9.76562 13.623 9.76562 19.0047C9.76562 24.3795 14.2318 28.7598 19.7105 28.7598Z" fill="#CBB702"/>
<path d="M18.0462 5.89171L19.7111 2.62499L21.3765 5.89171C21.5071 6.15509 21.7832 6.30559 22.0673 6.30559C22.1824 6.30559 22.2974 6.28286 22.4125 6.22289C22.7885 6.03475 22.9419 5.58288 22.7577 5.21409L20.4096 0.599912C20.2638 0.343983 20.0029 0.186035 19.7112 0.186035C19.4195 0.186035 19.1586 0.343983 19.0284 0.599912L16.6802 5.21409C16.4884 5.58289 16.6419 6.0344 17.0254 6.22289C17.3938 6.41139 17.8541 6.26051 18.0463 5.8917L18.0462 5.89171Z" fill="#CBB702"/>
<path d="M12.4047 8.09787C12.5353 7.70634 12.3204 7.27755 11.9212 7.142L6.9332 5.50844C6.65711 5.41829 6.34986 5.48572 6.15048 5.68912C5.95109 5.89251 5.87439 6.18607 5.96629 6.4569L7.63162 11.3497C7.7391 11.666 8.03836 11.8616 8.36079 11.8616C8.43751 11.8616 8.52182 11.8467 8.60651 11.824C9.00566 11.6958 9.2282 11.2671 9.08997 10.8755L7.91571 7.41281L11.4458 8.56466C11.8369 8.70734 12.2665 8.49686 12.4047 8.09788L12.4047 8.09787Z" fill="#CBB702"/>
<path d="M0.948286 19.6753L5.65222 21.9787C5.7597 22.0312 5.88237 22.0614 5.99744 22.0614C6.28152 22.0614 6.55002 21.9109 6.68826 21.6475C6.88005 21.2787 6.72662 20.8272 6.34304 20.6387L3.01277 19.0051L6.34304 17.3716C6.71902 17.1834 6.87245 16.7316 6.68826 16.3628C6.50407 15.994 6.03581 15.8435 5.65983 16.0241L0.955898 18.3275C0.687397 18.4556 0.526367 18.7194 0.526367 19.0051C0.526367 19.2912 0.687388 19.5546 0.948295 19.6753L0.948286 19.6753Z" fill="#CBB702"/>
<path d="M6.1433 32.313C6.28914 32.4561 6.48852 32.5313 6.68828 32.5313C6.77259 32.5313 6.8493 32.5164 6.93399 32.4937L11.922 30.8601C12.3211 30.732 12.5437 30.3032 12.4054 29.9043C12.2748 29.5127 11.8377 29.2944 11.4385 29.43L7.90849 30.5819L9.08274 27.1192C9.21339 26.7276 8.99843 26.2989 8.59928 26.1707C8.19254 26.0351 7.76302 26.2534 7.63238 26.6449L5.96706 31.5378C5.86718 31.8086 5.93592 32.1096 6.14327 32.313L6.1433 32.313Z" fill="#CBB702"/>
<path d="M19.0278 37.4086C19.1585 37.6645 19.4194 37.8228 19.7106 37.8228C20.0023 37.8228 20.2632 37.6649 20.3935 37.409L22.7416 32.7948C22.9334 32.426 22.78 31.9745 22.3964 31.786C22.0204 31.5978 21.5601 31.7484 21.368 32.1246L19.7106 35.3839L18.0453 32.1172C17.8535 31.7484 17.3928 31.5979 17.0168 31.7785C16.6409 31.9667 16.4874 32.4185 16.6716 32.7873L19.0278 37.4086Z" fill="#CBB702"/>
<path d="M27.0157 29.912C26.8851 30.3035 27.1001 30.7323 27.4992 30.8678L32.4872 32.5014C32.5639 32.5241 32.6482 32.539 32.7329 32.539C32.9323 32.539 33.132 32.4638 33.2779 32.3207C33.4852 32.1173 33.554 31.8238 33.462 31.5529L31.7967 26.6601C31.6661 26.2686 31.229 26.0503 30.8298 26.1858C30.4307 26.314 30.2081 26.7428 30.3464 27.1417L31.5206 30.6044L27.9906 29.4526C27.5835 29.3021 27.1536 29.5129 27.0157 29.9119V29.912Z" fill="#CBB702"/>
<path d="M32.7403 16.3632C32.5486 16.732 32.702 17.1836 33.0856 17.372L36.4086 19.0052L33.0784 20.6388C32.7024 20.8269 32.549 21.2788 32.7332 21.6476C32.8714 21.9109 33.1399 22.0614 33.424 22.0614C33.539 22.0614 33.6541 22.0387 33.7692 21.9787L38.4731 19.6754C38.7336 19.5547 38.895 19.2913 38.895 19.0052C38.895 18.7191 38.734 18.4558 38.4731 18.3354L33.7692 16.0321C33.3928 15.8365 32.9325 15.987 32.7404 16.3633L32.7403 16.3632Z" fill="#CBB702"/>
<path d="M33.2778 5.69644C33.0704 5.49304 32.7712 5.42561 32.4951 5.51577L27.507 7.14932C27.1079 7.27748 26.8853 7.70625 27.0235 8.10519C27.1542 8.49672 27.5913 8.71502 27.9905 8.57943L31.5205 7.42758L30.3463 10.8903C30.2156 11.2818 30.4306 11.7106 30.8297 11.8462C30.9141 11.8763 30.9908 11.8838 31.0755 11.8838C31.3979 11.8838 31.6971 11.6804 31.8046 11.3719L33.47 6.47908C33.5539 6.2008 33.4848 5.8998 33.2778 5.6964L33.2778 5.69644Z" fill="#CBB702"/>
</svg>
