<svg width="39" height="38" viewBox="0 0 39 38" fill="none" xmlns="http://www.w3.org/2000/svg">
<path d="M37.9813 14.5239H35.2043C34.8025 14.5239 34.4553 14.255 34.3091 13.8427C34.1446 13.3946 33.9619 12.9465 33.7427 12.5165C33.5601 12.1224 33.6147 11.692 33.8889 11.4234L35.8621 9.50588C36.2094 9.14755 36.2094 8.592 35.8621 8.23325L30.6915 3.16128C30.3262 2.82069 29.7599 2.82069 29.3941 3.16128L27.4393 5.09692C27.1651 5.36584 26.7268 5.41941 26.3249 5.24025C25.8866 5.02525 25.4298 4.84609 24.9545 4.68466C24.5527 4.54133 24.2785 4.20074 24.2785 3.80657L24.2782 1.08221C24.2782 0.580557 23.8763 0.186035 23.3645 0.186035H16.0564C15.545 0.186035 15.1431 0.580557 15.1431 1.08221V3.80621C15.1431 4.20037 14.869 4.54096 14.4487 4.68429C13.9919 4.84572 13.5351 5.02488 13.0967 5.24024C12.6949 5.4194 12.2561 5.36583 11.9824 5.09691L10.0271 3.16127C9.66182 2.82068 9.09547 2.82068 8.72974 3.16127L3.55947 8.23324C3.21226 8.59157 3.21226 9.14711 3.55947 9.50587L5.53276 11.4234C5.80691 11.6924 5.86153 12.1224 5.67888 12.5165C5.45934 12.9465 5.27669 13.3946 5.11249 13.8604C4.96637 14.2549 4.61915 14.5239 4.21696 14.5239H1.43998C0.928563 14.5239 0.526367 14.918 0.526367 15.42V22.5888C0.526367 23.0904 0.928192 23.485 1.43998 23.485H4.21696C4.61878 23.485 4.966 23.7539 5.11212 24.1481C5.27669 24.6139 5.45934 25.0619 5.67852 25.4923C5.86117 25.8865 5.80655 26.3168 5.5324 26.5854L3.55939 28.5026C3.39483 28.6818 3.28524 28.8968 3.28524 29.148C3.28524 29.381 3.39483 29.6138 3.55939 29.7752L8.73002 34.8472C9.09532 35.1878 9.66167 35.1878 10.0274 34.8472L11.9823 32.9115C12.2564 32.6426 12.6948 32.589 13.0966 32.7682C13.535 32.9832 13.9918 33.1624 14.467 33.3238C14.8689 33.4671 15.143 33.8077 15.143 34.2019V36.9262C15.143 37.4279 15.5448 37.8224 16.0566 37.8224H23.3648C23.8762 37.8224 24.2784 37.4283 24.2784 36.9262V34.2022C24.2784 33.8081 24.5526 33.4675 24.9544 33.3242C25.4293 33.1627 25.8861 32.9836 26.3248 32.7686C26.7267 32.5894 27.1654 32.643 27.4392 32.9119L29.394 34.8475C29.7593 35.1881 30.3257 35.1881 30.6914 34.8475L35.862 29.7756C36.0266 29.6141 36.1362 29.3814 36.1362 29.1483C36.1362 28.8975 36.0266 28.6825 35.862 28.503L33.8888 26.5854C33.6146 26.3165 33.56 25.8865 33.7426 25.4923C33.9618 25.0623 34.1445 24.6142 34.309 24.1481C34.4552 23.7539 34.8024 23.485 35.2042 23.485L37.9812 23.4846C38.4926 23.4846 38.8948 23.0904 38.8948 22.5884V15.4197C38.8944 14.918 38.4926 14.5239 37.9812 14.5239L37.9813 14.5239ZM26.1056 19.0041C26.1056 22.4628 23.2371 25.2766 19.7111 25.2766C16.1847 25.2769 13.3162 22.4631 13.3162 19.0041C13.3162 15.5453 16.1847 12.7316 19.7107 12.7316C23.2371 12.7316 26.1056 15.5453 26.1056 19.0041Z" fill="#363636"/>
</svg>
